<svg width="20" height="20" viewBox="0 0 20 20" fill="none" xmlns="http://www.w3.org/2000/svg">
<path d="M13.5734 7.85652C12.8445 6.64467 11.5166 5.83342 10.0003 5.83342C7.70032 5.83342 5.83366 7.70007 5.83366 10.0001C5.83366 12.3001 7.70032 14.1667 10.0003 14.1667C11.5166 14.1667 12.8445 13.3555 13.5734 12.1437L12.1444 11.2869C11.7072 12.0139 10.9109 12.5001 10.0003 12.5001C8.61908 12.5001 7.50033 11.3813 7.50033 10.0001C7.50033 8.61883 8.61908 7.50008 10.0003 7.50008C10.9112 7.50008 11.7079 7.98663 12.1449 8.71408L13.5734 7.85652ZM18.3337 10.0001C18.3337 5.40006 14.6003 1.66675 10.0003 1.66675C5.40031 1.66675 1.66699 5.40006 1.66699 10.0001C1.66699 14.6001 5.40031 18.3334 10.0003 18.3334C14.6003 18.3334 18.3337 14.6001 18.3337 10.0001ZM3.33366 10.0001C3.33366 6.31671 6.31696 3.33341 10.0003 3.33341C13.6837 3.33341 16.667 6.31671 16.667 10.0001C16.667 13.6834 13.6837 16.6667 10.0003 16.6667C6.31696 16.6667 3.33366 13.6834 3.33366 10.0001Z" fill="white" fill-opacity="0.5"/>
</svg>
